<?xml version="1.0" encoding="UTF-8" standalone="no"?>
<!DOCTYPE svg PUBLIC "-//W3C//DTD SVG 1.1//EN" "http://www.w3.org/Graphics/SVG/1.1/DTD/svg11.dtd">
<svg width="100%" height="100%" viewBox="0 0 1024 500" version="1.1" xmlns="http://www.w3.org/2000/svg" xmlns:xlink="http://www.w3.org/1999/xlink" xml:space="preserve" xmlns:serif="http://www.serif.com/" style="fill-rule:evenodd;clip-rule:evenodd;stroke-linecap:round;stroke-linejoin:round;stroke-miterlimit:1.5;">
    <rect x="0" y="0" width="1029.62" height="500" style="fill:rgb(197,26,74);"/>
    <g>
        <path d="M760,184.842L270,184.683" style="fill:none;stroke:rgb(16,16,16);stroke-width:12px;"/>
        <g transform="matrix(1,0,0,1.09633,0,-21.6444)">
            <path d="M870,157.697C870,154.554 867.202,152.002 863.756,152.002L766.244,152.002C762.798,152.002 760,154.554 760,157.697L760,218.988C760,222.131 762.798,224.683 766.244,224.683L863.756,224.683C867.202,224.683 870,222.131 870,218.988L870,157.697Z" style="fill:rgb(16,16,16);"/>
        </g>
        <g transform="matrix(1,0,0,0.550345,-580,81.1883)">
            <path d="M870,157.697C870,154.554 868.595,152.002 866.865,152.002L763.135,152.002C761.405,152.002 760,154.554 760,157.697L760,218.988C760,222.131 761.405,224.683 763.135,224.683L866.865,224.683C868.595,224.683 870,222.131 870,218.988L870,157.697Z" style="fill:rgb(16,16,16);"/>
        </g>
    </g>
    <g transform="matrix(6.12323e-17,-1,1,6.12323e-17,570,1004.68)">
        <g transform="matrix(0.968725,0,0,0.89418,20.6414,31.746)">
            <path d="M1000,314.55C1000,306.52 993.982,300 986.57,300L673.43,300C666.018,300 660,306.52 660,314.55L660,553.852C660,561.883 666.018,568.402 673.43,568.402L986.57,568.402C993.982,568.402 1000,561.883 1000,553.852L1000,314.55Z" style="fill:rgb(0,114,61);"/>
        </g>
        <g transform="matrix(1,0,0,1.25,0,-70)">
            <rect x="680" y="280" width="80" height="80" style="fill:rgb(207,207,207);"/>
        </g>
        <g transform="matrix(1,0,0,1.25,100,-70)">
            <rect x="680" y="280" width="80" height="80" style="fill:rgb(207,207,207);"/>
        </g>
        <rect x="880" y="280" width="90.833" height="120" style="fill:rgb(207,207,207);"/>
    </g>
    <g transform="matrix(1,0,0,1.10526,-315.304,-47.422)">
        <path d="M530.609,102.979C530.609,57.182 489.513,20 438.895,20L151.714,20C101.096,20 60,57.182 60,102.979L60,317.021C60,362.818 101.096,400 151.714,400L438.895,400C489.513,400 530.609,362.818 530.609,317.021L530.609,102.979Z" style="fill:rgb(221,221,221);"/>
    </g>
    <g transform="matrix(0.972158,0,0,1.1548,-87.8631,-76.0426)">
        <path d="M229.559,55.391C229.559,52.959 227.213,50.984 224.324,50.984L5.235,50.984C2.346,50.984 0,52.959 0,55.391L0,395.593C0,398.025 2.346,400 5.235,400L224.324,400C227.213,400 229.559,398.025 229.559,395.593L229.559,55.391Z" style="fill:rgb(34,34,34);"/>
    </g>
    <g transform="matrix(4.01767,0,0,4.24296,-1071.19,-1254.01)">
        <text x="346.005px" y="392.793px" style="font-family:'Aharoni-Bold', 'Aharoni';font-weight:700;font-size:24.947px;">Plug n Pi</text>
    </g>
</svg>
